# xmcd CD database file
#
# Track frame offsets:
#	150
#	4440
#	17841
#	29592
#	44629
#	55340
#	70620
#	89233
#	105674
#	110327
#	125724
#	139824
#	159691
#	174343
#	189771
#	204469
#	225382
#
# Disc length: 3093 seconds
#
# Revision: 2
# Processed by: cddbd v1.4PL0 Copyright (c) Steve Scherf et al.
# Submitted via: CDex 1.50
#
DISCID=ee0c1311
DTITLE=Empedocles - Vierwerk
DYEAR=2003
DGENRE=Nederhop
TTITLE0=Intro
TTITLE1=Vierwerk Alfa
TTITLE2=Vierwerk Bèta
TTITLE3=Het gordijn open en dicht
TTITLE4=De party is hier (ft STW)
TTITLE5=Glimp van je Glimlach (ft Analyse)
TTITLE6=Shitzooi
TTITLE7=De lekkere trek (ft DAC)
TTITLE8=Middelloet
TTITLE9=Bedelen of Bedelen
TTITLE10=Cluedo (ft B-fraction and Pculiar)
TTITLE11=1-2-stand
TTITLE12=Beatbox
TTITLE13=De Rap van Murphy
TTITLE14=Driewieler (ft Gregwariuz)
TTITLE15=Wegcijferd in Letters
TTITLE16=Outro
EXTD=YEAR: 2003
EXTT0=
EXTT1=
EXTT2=
EXTT3=
EXTT4=
EXTT5=
EXTT6=
EXTT7=
EXTT8=
EXTT9=
EXTT10=
EXTT11=
EXTT12=
EXTT13=
EXTT14=
EXTT15=
EXTT16=
PLAYORDER=
